<svg xmlns="http://www.w3.org/2000/svg" xmlns:xlink="http://www.w3.org/1999/xlink" width="1366" zoomAndPan="magnify" viewBox="0 0 1024.5 576" height="768" preserveAspectRatio="xMidYMid meet" version="1.0"><defs><g/><clipPath id="2a1b02f958"><path d="M 0 0.140625 L 1024 0.140625 L 1024 575.859375 L 0 575.859375 Z M 0 0.140625 " clip-rule="nonzero"/></clipPath></defs><g clip-path="url(#2a1b02f958)"><path fill="#ffffff" d="M 0 0.140625 L 1024.5 0.140625 L 1024.5 583.640625 L 0 583.640625 Z M 0 0.140625 " fill-opacity="1" fill-rule="nonzero"/><path fill="#ffffff" d="M 0 0.140625 L 1024.5 0.140625 L 1024.5 576.140625 L 0 576.140625 Z M 0 0.140625 " fill-opacity="1" fill-rule="nonzero"/><path fill="#a9b2a7" d="M 0 0.140625 L 1024.5 0.140625 L 1024.5 576.140625 L 0 576.140625 Z M 0 0.140625 " fill-opacity="1" fill-rule="nonzero"/></g><g fill="#faf2e9" fill-opacity="1"><g transform="translate(84.193194, 384.473943)"><g><path d="M 224.359375 2.78125 C 233.09375 2.78125 241.035156 1.191406 243.816406 0 L 243.816406 -3.972656 C 241.433594 -3.574219 239.449219 -3.175781 237.066406 -3.175781 C 224.359375 -3.175781 212.84375 -20.648438 196.164062 -62.742188 C 178.691406 -107.214844 172.339844 -137.792969 119.128906 -145.335938 C 169.957031 -150.5 198.945312 -179.488281 198.945312 -217.609375 C 198.945312 -256.125 168.765625 -277.964844 94.90625 -277.964844 L 21.839844 -277.964844 L 21.839844 -273.597656 C 32.957031 -270.820312 37.722656 -264.066406 37.722656 -227.535156 L 37.722656 -50.429688 C 37.722656 -13.898438 32.957031 -7.148438 21.839844 -4.367188 L 21.839844 0 L 75.84375 0 L 75.84375 -4.367188 C 64.726562 -7.148438 59.960938 -13.898438 59.960938 -50.429688 L 59.960938 -144.542969 L 87.359375 -144.542969 C 148.910156 -144.542969 153.675781 -107.613281 175.914062 -56.386719 C 191.398438 -20.648438 195.769531 2.78125 224.359375 2.78125 Z M 59.960938 -150.101562 L 59.960938 -272.011719 C 67.109375 -272.40625 73.460938 -272.804688 79.816406 -272.804688 C 148.910156 -272.804688 174.324219 -247.789062 174.324219 -208.871094 C 174.324219 -171.546875 148.117188 -150.101562 102.054688 -150.101562 Z M 59.960938 -150.101562 "/></g></g></g><g fill="#faf2e9" fill-opacity="1"><g transform="translate(324.430124, 384.473943)"><g><path d="M 170.355469 0 L 198.945312 0 L 198.945312 -4.367188 C 187.824219 -7.148438 183.0625 -13.898438 183.0625 -50.429688 L 183.0625 -133.027344 C 183.0625 -173.925781 161.617188 -201.328125 113.570312 -201.328125 C 80.609375 -201.328125 53.210938 -185.839844 30.179688 -156.457031 L 33.753906 -153.675781 C 52.8125 -178.296875 77.433594 -191.003906 102.847656 -191.003906 C 140.96875 -191.003906 159.632812 -170.75 162.015625 -132.234375 L 103.246094 -116.746094 C 57.578125 -104.832031 15.882812 -89.742188 15.882812 -48.046875 C 15.882812 -13.105469 43.679688 3.972656 73.460938 3.972656 C 110.789062 3.972656 148.910156 -32.164062 162.410156 -83.785156 L 162.410156 -7.941406 C 162.410156 -2.78125 165.191406 0 170.355469 0 Z M 37.722656 -55.992188 C 37.328125 -88.15625 63.136719 -101.257812 104.832031 -112.378906 L 162.410156 -127.46875 L 162.410156 -113.570312 C 162.015625 -65.917969 129.054688 -13.5 82.597656 -13.5 C 55.195312 -13.5 38.121094 -30.578125 37.722656 -55.992188 Z M 37.722656 -55.992188 "/></g></g></g><g fill="#faf2e9" fill-opacity="1"><g transform="translate(534.488541, 384.473943)"><g><path d="M 17.074219 0 L 69.492188 0 L 69.492188 -4.367188 C 58.371094 -7.148438 53.609375 -13.898438 53.609375 -50.429688 L 53.609375 -193.78125 L 105.628906 -193.78125 L 108.011719 -198.546875 L 53.609375 -198.546875 L 53.609375 -208.871094 C 53.609375 -268.832031 81.800781 -283.921875 97.683594 -293.054688 C 117.9375 -286.703125 134.613281 -280.347656 150.5 -280.347656 C 164.792969 -280.347656 172.339844 -294.246094 172.339844 -300.203125 C 172.339844 -305.367188 165.589844 -309.335938 146.527344 -309.335938 C 83.785156 -309.335938 36.53125 -258.507812 32.957031 -198.546875 L 12.308594 -198.546875 L 9.925781 -193.78125 L 32.957031 -193.78125 L 32.957031 -50.429688 C 32.957031 -13.898438 28.195312 -7.148438 17.074219 -4.367188 Z M 17.074219 0 "/></g></g></g><g fill="#faf2e9" fill-opacity="1"><g transform="translate(650.834677, 384.473943)"><g><path d="M 14.691406 0 L 67.109375 0 L 67.109375 -4.367188 C 55.992188 -7.148438 51.226562 -13.898438 51.226562 -50.429688 L 51.226562 -198.945312 L 48.445312 -201.328125 L 14.691406 -186.632812 L 14.691406 -183.0625 C 26.605469 -177.898438 30.578125 -174.324219 30.578125 -141.761719 L 30.578125 -50.429688 C 30.578125 -13.898438 25.8125 -7.148438 14.691406 -4.367188 Z M 22.238281 -253.742188 C 22.238281 -244.609375 29.386719 -237.460938 38.519531 -237.460938 C 47.652344 -237.460938 54.800781 -244.609375 54.800781 -253.742188 C 54.800781 -262.875 48.046875 -270.023438 38.519531 -270.023438 C 29.386719 -270.023438 22.238281 -262.875 22.238281 -253.742188 Z M 22.238281 -253.742188 "/></g></g></g><g fill="#faf2e9" fill-opacity="1"><g transform="translate(733.82562, 384.473943)"><g><path d="M 18.265625 0 L 70.683594 0 L 70.683594 -4.367188 C 59.5625 -7.148438 54.800781 -13.898438 54.800781 -50.429688 L 54.800781 -76.242188 L 100.863281 -119.527344 L 140.175781 -47.652344 C 160.027344 -11.914062 166.78125 0 186.238281 0 L 206.09375 0 L 206.09375 -3.972656 C 189.015625 -6.355469 176.707031 -23.824219 161.21875 -52.019531 L 115.953125 -133.820312 L 148.117188 -164 C 174.722656 -189.015625 185.046875 -190.605469 196.5625 -194.179688 L 196.5625 -198.546875 L 153.277344 -198.546875 L 153.277344 -196.5625 C 162.808594 -191.398438 157.25 -178.691406 130.246094 -153.675781 L 54.800781 -82.992188 L 54.800781 -318.074219 L 52.019531 -320.457031 L 18.265625 -305.761719 L 18.265625 -302.1875 C 30.179688 -297.027344 34.148438 -293.453125 34.148438 -260.890625 L 34.148438 -50.429688 C 34.148438 -13.898438 29.386719 -7.148438 18.265625 -4.367188 Z M 18.265625 0 "/></g></g></g></svg>